<svg xmlns="http://www.w3.org/2000/svg" width="1222.287" height="521.818" viewBox="0 0 1222.287 521.818">
  <path id="Path_24" data-name="Path 24" d="M464.623,29.315c0,11.567,17.351,19.279,19.279,19.279,2.571,0,3.213-1.928,3.213-7.069,0-55.909,37.915-135.6,66.834-189.577a145.25,145.25,0,0,1,16.708-.643c33.417,0,28.918,10.282,31.489,10.282a3.036,3.036,0,0,0,3.213-3.213c0-14.781-27.633-16.066-44.984-16.066,41.771-87.4,105.392-155.517,140.737-187.006,4.5-4.5,8.354-6.426,8.354-10.282,0-8.354-14.138-32.132-22.492-32.132-5.141,0-12.853,4.5-21.207,14.138-34.7,38.558-92.539,112.461-142.664,219.138-61.05,7.712-136.238,24.42-194.718,32.774,60.408-82.9,125.956-164.514,125.956-222.351,0-38.558-43.056-75.188-94.467-75.188C237.774-418.6,0-278.506,0-134.556,0-97.284,51.411-57.44,90.611-57.44c71.975,0,135.6-112.461,151.661-148.448,5.141-10.282,8.354-17.994,8.354-21.849,0-1.928-1.285-3.856-3.213-3.856s-3.213,1.928-5.141,6.426C220.423-179.541,149.733-73.506,72.617-73.506c-18.636,0-39.2-15.423-39.2-41.771,0-140.094,222.351-291.755,339.953-291.755,35.345,0,47.555,18.636,47.555,41.128,0,59.122-75.831,156.16-141.379,249.984h-9.64c-30.846,0-43.7-16.066-46.912-16.066a1.7,1.7,0,0,0-1.928,1.928c0,4.5,14.138,32.132,42.414,37.915C221.066-29.807,186.363,29.315,186.363,71.729c0,15.423,34.7,31.489,37.273,31.489,1.285,0,2.571-1.285,2.571-3.213,0-3.213-.643-7.712-.643-18.636,0-50.125,38.558-112.461,83.542-176.081,61.05-9.639,135.6-38.558,208.856-49.483C489.686-90.857,464.623-17.6,464.623,29.315ZM627.852-75.434c19.279-46.912,44.342-71.975,55.266-71.975,3.213,0,5.141,1.928,5.141,7.069C688.26-125.559,656.771-94.713,627.852-75.434Zm122.743,0s-62.978,64.906-97.038,64.906c-18.636,0-28.276-16.708-28.276-36.63,0-4.5.643-16.066,1.928-19.922,35.345-21.85,74.545-55.909,74.545-73.9,0-7.712-10.925-29.561-28.276-29.561-28.276,0-86.113,60.407-86.113,118.244,0,33.417,17.351,53.981,50.125,53.981,49.483,0,113.1-69.4,113.1-69.4,1.928-1.928,6.426-6.426,6.426-7.712A2.7,2.7,0,0,0,754.451-78C753.166-78,750.6-75.434,750.6-75.434ZM793.651,3.61c-9,0-16.066-5.141-16.066-20.564,0-26.348,15.423-66.191,15.423-66.191,62.335-58.48,157.445-157.445,157.445-201.144,0-18.636-14.781-35.345-33.417-35.345-48.84,0-169.012,176.081-169.012,298.182,0,26.348,14.781,39.2,32.132,39.2,24.42,0,77.116-55.909,104.107-79.044-1.928,8.354-4.5,26.991-4.5,33.417,0,26.348,14.781,39.2,32.132,39.2,35.345,0,118.887-79.044,118.887-79.044,1.928-1.928,6.426-6.426,6.426-7.712a2.7,2.7,0,0,0-2.57-2.571c-1.285,0-2.571,1.285-3.856,2.571,0,0-79.687,72.617-105.392,72.617-9,0-16.066-5.141-16.066-20.564,0-26.348,12.21-59.765,12.21-59.765,62.335-58.48,165.8-174.153,165.8-217.852,0-18.636-14.781-35.345-33.417-35.345-44.984,0-137.523,153.589-169.012,266.05C859.843-48.444,811,3.61,793.651,3.61ZM926.676-97.926C943.385-160.9,1031.426-310,1067.413-310c4.5,0,8.354,2.571,8.354,8.354C1075.767-262.44,976.8-147.409,926.676-97.926Zm-128.527,0c16.708-62.978,96.395-195.36,132.382-195.36,4.5,0,8.354,2.571,8.354,8.354C938.886-245.732,848.275-147.409,798.15-97.926Zm417.069,30.2c1.928-1.928,7.069-6.426,7.069-7.712A3.518,3.518,0,0,0,1219.074-78c-1.928,0-3.856,2.571-3.856,2.571-19.922,19.922-53.338,46.27-91.9,48.84,27.633-24.42,55.266-61.05,55.266-103.464,0-26.991-21.207-45.627-50.125-45.627-34.059,0-93.182,39.2-93.182,93.824,0,1.928.643,3.213.643,4.5a91.287,91.287,0,0,0-7.069,35.345c0,29.561,27.633,44.984,43.056,44.984,8.354,0,25.705-8.354,44.342-23.135C1165.736-22.1,1195.939-50.371,1215.218-67.723Zm-133.025-68.119c-13.5,11.567-27.633,24.42-37.915,41.128,7.712-42.414,53.339-71.975,78.4-71.975s37.273,13.5,37.273,34.7c0,41.771-26.348,82.9-53.339,106.677-23.135-1.285-42.414-9.639-53.339-23.777,14.138-28.276,46.912-56.552,70.69-70.69,3.856-1.928,8.354-4.5,8.354-8.354,0-6.426-12.853-24.42-20.564-24.42C1103.4-152.55,1092.476-144.838,1082.193-135.842Zm-32.132,94.467c11.567,12.21,29.561,19.279,50.768,21.207-12.853,9.639-25.705,15.423-35.345,15.423-10.925,0-17.994-9.639-17.994-21.207A43.2,43.2,0,0,1,1050.062-41.375Z" transform="translate(0 418.6)" fill="#eff2f4" style="mix-blend-mode: multiply;isolation: isolate"/>
</svg>
