<svg xmlns="http://www.w3.org/2000/svg" width="154.013" height="110.635" viewBox="0 0 154.013 110.635">
  <path id="Path_10" data-name="Path 10" d="M63.866-2.574c-.424,0-.706.283-1.272,1.413C59.486,5.056,44.226,29.924,19.5,29.924c-6.924,0-12.01-4.521-12.01-12.575,0-26.988,40.411-59.2,71.637-59.2,11.162,0,14.695,5.511,14.695,13.564,0,8.76-5.511,23.173-13,39C62.312,28.37,46.769,46.6,46.769,52.673c0,4.1,5.228,6.782,9.043,6.782,8.478,0,20.912-23.6,37.161-54.258,20.205-16.956,37.3-33.063,48.888-33.063,2.4,0,3.956,1.413,3.956,3.25,0,12.858-32.922,49.312-32.922,75.169C112.9,62,123.634,67.085,129,67.085c1.13,0,1.7-.424,1.7-.848,0-.283-.283-.424-.706-.424-4.38,0-8.9-3.391-8.9-11.728,0-25.151,32.922-60.616,32.922-74.746,0-4.521-6.782-9.608-11.3-9.608-11.869,0-27.835,14.553-47.617,30.52,3.815-9.184,7.065-18.651,7.065-23.738,0-13.141-8.9-20.064-22.749-20.064C45.78-43.55,0-13.313,0,12.4c0,10.88,11.869,20.771,25.009,20.771,20.488,0,36.03-26.281,39-33.77a4.491,4.491,0,0,0,.424-1.272A.646.646,0,0,0,63.866-2.574ZM49.171,52.955c0-4.663,15.26-23.173,28.683-36.03C68.1,35.011,54.4,54.509,50.584,54.509,49.595,54.509,49.171,53.944,49.171,52.955Z" transform="translate(0 43.55)" fill="#e9edf2"/>
</svg>
