<svg xmlns="http://www.w3.org/2000/svg" width="396.891" height="331.827" viewBox="0 0 396.891 331.827">
  <path id="Path_27" data-name="Path 27" d="M326.358,69.972c6.506,0,13.013-4.338,13.013-13.013S315.514,26.6,315.514-21.118c0-91.09,84.583-206.036,84.583-214.712s-2.169-13.013-10.844-13.013c-21.688,0-182.18,123.622-182.18,199.53S313.345,69.972,326.358,69.972ZM107.309,72.141c8.675,0,13.013-6.506,13.013-10.844,0-10.844-8.675-19.519-8.675-56.389,0-123.622,95.427-238.568,95.427-249.413s-4.338-15.181-15.182-15.181c-36.87,0-188.686,167-188.686,232.062C3.206,20.09,79.114,72.141,107.309,72.141Z" transform="translate(-3.206 259.686)" fill="#f7f9fa" style="mix-blend-mode: multiply;isolation: isolate"/>
</svg>
